<?xml version="1.0" standalone="no"?>
<!DOCTYPE svg PUBLIC "-//W3C//DTD SVG 20010904//EN"
 "http://www.w3.org/TR/2001/REC-SVG-20010904/DTD/svg10.dtd">
<svg version="1.0" xmlns="http://www.w3.org/2000/svg"
 width="252.000000pt" height="196.000000pt" viewBox="0 0 252.000000 196.000000"
 preserveAspectRatio="xMidYMid meet">

<g transform="translate(0.000000,196.000000) scale(0.100000,-0.100000)"
fill="#000000" stroke="none">
<path d="M1296 1655 c-76 -32 -139 -84 -165 -138 -22 -46 -27 -87 -11 -87 6 0
10 5 10 10 0 20 149 165 199 195 83 49 65 60 -33 20z"/>
<path d="M1446 1645 c-80 -42 -159 -100 -203 -148 -63 -68 -113 -151 -113
-187 0 -37 9 -38 41 -4 46 50 145 122 214 157 90 45 150 65 241 79 41 6 74 15
74 19 0 18 -54 69 -93 88 -57 28 -104 26 -161 -4z"/>
<path d="M1575 1480 c-141 -37 -260 -106 -363 -209 -52 -53 -62 -69 -62 -97 0
-19 4 -34 8 -34 5 0 33 17 63 39 123 87 297 159 444 181 38 6 71 12 72 14 1 1
-3 30 -9 64 l-12 62 -35 -1 c-20 0 -67 -8 -106 -19z"/>
<path d="M1635 1305 c-73 -16 -193 -59 -260 -93 -85 -42 -195 -123 -201 -148
-7 -29 -2 -59 11 -58 6 0 67 28 136 62 129 64 259 104 379 118 l62 7 -6 55
c-4 30 -9 59 -12 63 -7 12 -36 10 -109 -6z"/>
<path d="M1595 1116 c-145 -38 -305 -105 -365 -154 -23 -19 -24 -20 -7 -46 21
-31 40 -32 93 -7 75 36 209 78 304 96 168 30 155 24 155 80 l0 50 -45 2 c-25
1 -85 -9 -135 -21z"/>
<path d="M1605 950 c-89 -20 -265 -77 -279 -90 -13 -13 98 -23 166 -16 79 9
153 38 201 77 65 54 47 60 -88 29z"/>
</g>
</svg>
